%TF.GenerationSoftware,KiCad,Pcbnew,(5.1.6)-1*%
%TF.CreationDate,2020-11-25T15:39:46-05:00*%
%TF.ProjectId,CNC_Board,434e435f-426f-4617-9264-2e6b69636164,rev?*%
%TF.SameCoordinates,Original*%
%TF.FileFunction,Copper,L4,Bot*%
%TF.FilePolarity,Positive*%
%FSLAX46Y46*%
G04 Gerber Fmt 4.6, Leading zero omitted, Abs format (unit mm)*
G04 Created by KiCad (PCBNEW (5.1.6)-1) date 2020-11-25 15:39:46*
%MOMM*%
%LPD*%
G01*
G04 APERTURE LIST*
%TA.AperFunction,ComponentPad*%
%ADD10O,5.000000X3.000000*%
%TD*%
%TA.AperFunction,ComponentPad*%
%ADD11C,2.040000*%
%TD*%
%TA.AperFunction,ComponentPad*%
%ADD12R,2.040000X2.040000*%
%TD*%
%TA.AperFunction,ComponentPad*%
%ADD13C,1.600000*%
%TD*%
%TA.AperFunction,ComponentPad*%
%ADD14R,1.600000X1.600000*%
%TD*%
%TA.AperFunction,ComponentPad*%
%ADD15C,3.000000*%
%TD*%
%TA.AperFunction,ComponentPad*%
%ADD16C,6.400000*%
%TD*%
%TA.AperFunction,ComponentPad*%
%ADD17R,2.000000X2.000000*%
%TD*%
%TA.AperFunction,ComponentPad*%
%ADD18C,2.000000*%
%TD*%
%TA.AperFunction,ComponentPad*%
%ADD19R,3.200000X2.000000*%
%TD*%
%TA.AperFunction,ComponentPad*%
%ADD20C,2.850000*%
%TD*%
%TA.AperFunction,ComponentPad*%
%ADD21R,2.850000X2.850000*%
%TD*%
%TA.AperFunction,ComponentPad*%
%ADD22O,1.600000X1.600000*%
%TD*%
%TA.AperFunction,ComponentPad*%
%ADD23O,1.700000X1.700000*%
%TD*%
%TA.AperFunction,ComponentPad*%
%ADD24R,1.700000X1.700000*%
%TD*%
%TA.AperFunction,ComponentPad*%
%ADD25O,1.740000X2.190000*%
%TD*%
%TA.AperFunction,ComponentPad*%
%ADD26C,2.100000*%
%TD*%
%TA.AperFunction,ComponentPad*%
%ADD27R,2.100000X2.100000*%
%TD*%
%TA.AperFunction,ComponentPad*%
%ADD28O,1.350000X1.350000*%
%TD*%
%TA.AperFunction,ComponentPad*%
%ADD29R,1.350000X1.350000*%
%TD*%
%TA.AperFunction,ComponentPad*%
%ADD30O,4.500000X2.250000*%
%TD*%
%TA.AperFunction,ComponentPad*%
%ADD31O,2.250000X4.500000*%
%TD*%
%TA.AperFunction,ComponentPad*%
%ADD32O,2.500000X5.000000*%
%TD*%
%TA.AperFunction,ComponentPad*%
%ADD33O,2.190000X1.740000*%
%TD*%
%TA.AperFunction,ComponentPad*%
%ADD34O,2.200000X2.200000*%
%TD*%
%TA.AperFunction,ComponentPad*%
%ADD35R,2.200000X2.200000*%
%TD*%
%TA.AperFunction,ComponentPad*%
%ADD36C,1.800000*%
%TD*%
%TA.AperFunction,ComponentPad*%
%ADD37R,1.800000X1.800000*%
%TD*%
%TA.AperFunction,ComponentPad*%
%ADD38C,1.400000*%
%TD*%
%TA.AperFunction,ViaPad*%
%ADD39C,0.800000*%
%TD*%
%TA.AperFunction,Conductor*%
%ADD40C,0.250000*%
%TD*%
%TA.AperFunction,Conductor*%
%ADD41C,1.250000*%
%TD*%
G04 APERTURE END LIST*
D10*
%TO.P,U3,MP*%
%TO.N,N/C*%
X98000000Y-108250000D03*
X118700000Y-108250000D03*
X98000000Y-85050000D03*
X118700000Y-85050000D03*
D11*
%TO.P,U3,4*%
%TO.N,I2C_SDA*%
X104580000Y-84700000D03*
%TO.P,U3,3*%
%TO.N,I2C_SCL*%
X107120000Y-84700000D03*
D12*
%TO.P,U3,2*%
%TO.N,GND*%
X109660000Y-84700000D03*
D11*
%TO.P,U3,1*%
%TO.N,3.3_V*%
X112200000Y-84700000D03*
%TD*%
D13*
%TO.P,U1,17*%
%TO.N,D25*%
X148360000Y-83780000D03*
%TO.P,U1,18*%
%TO.N,D26_TX1*%
X145820000Y-83780000D03*
%TO.P,U1,19*%
%TO.N,D27_RX1*%
X143280000Y-83780000D03*
%TO.P,U1,20*%
%TO.N,D28*%
X140740000Y-83780000D03*
%TO.P,U1,16*%
%TO.N,Net-(U1-Pad16)*%
X150900000Y-83780000D03*
%TO.P,U1,15*%
%TO.N,Net-(U1-Pad15)*%
X153440000Y-83780000D03*
%TO.P,U1,14*%
%TO.N,Rot_B*%
X155980000Y-83780000D03*
%TO.P,U1,21*%
%TO.N,D29_PWM*%
X138200000Y-83780000D03*
%TO.P,U1,22*%
%TO.N,D30_PWM*%
X135660000Y-83780000D03*
%TO.P,U1,23*%
%TO.N,Net-(U1-Pad23)*%
X133120000Y-83780000D03*
%TO.P,U1,24*%
%TO.N,Net-(U1-Pad24)*%
X130580000Y-83780000D03*
%TO.P,U1,30*%
%TO.N,A14_TX5*%
X130580000Y-99020000D03*
%TO.P,U1,31*%
%TO.N,A15_RX5*%
X133120000Y-99020000D03*
%TO.P,U1,32*%
%TO.N,A16_PWM*%
X135660000Y-99020000D03*
%TO.P,U1,33*%
%TO.N,A17_PWM*%
X138200000Y-99020000D03*
%TO.P,U1,34*%
%TO.N,A18_PWM_SDL1*%
X140740000Y-99020000D03*
%TO.P,U1,35*%
%TO.N,A19_PWM_SDA1*%
X143280000Y-99020000D03*
%TO.P,U1,36*%
%TO.N,Limit_1*%
X145820000Y-99020000D03*
%TO.P,U1,37*%
%TO.N,Limit_2*%
X148360000Y-99020000D03*
%TO.P,U1,13*%
%TO.N,Rot_A*%
X158520000Y-83780000D03*
%TO.P,U1,12*%
%TO.N,Button*%
X161060000Y-83780000D03*
%TO.P,U1,11*%
%TO.N,Solenoid*%
X163600000Y-83780000D03*
%TO.P,U1,10*%
%TO.N,Servo_PWM*%
X166140000Y-83780000D03*
%TO.P,U1,9*%
%TO.N,DIRECTION_2*%
X168680000Y-83780000D03*
%TO.P,U1,8*%
%TO.N,STEP_2*%
X171220000Y-83780000D03*
%TO.P,U1,7*%
%TO.N,ENABLE_2*%
X173760000Y-83780000D03*
%TO.P,U1,6*%
%TO.N,DIRECTION_1*%
X176300000Y-83780000D03*
%TO.P,U1,5*%
%TO.N,STEP_1*%
X178840000Y-83780000D03*
%TO.P,U1,4*%
%TO.N,ENABLE_1*%
X181380000Y-83780000D03*
%TO.P,U1,3*%
%TO.N,Net-(U1-Pad3)*%
X183920000Y-83780000D03*
%TO.P,U1,2*%
%TO.N,Net-(U1-Pad2)*%
X186460000Y-83780000D03*
D14*
%TO.P,U1,1*%
%TO.N,GND*%
X189000000Y-83780000D03*
D13*
%TO.P,U1,38*%
%TO.N,Limit_3*%
X150900000Y-99020000D03*
%TO.P,U1,39*%
%TO.N,GND*%
X153440000Y-99020000D03*
%TO.P,U1,40*%
%TO.N,Green_LED*%
X155980000Y-99020000D03*
%TO.P,U1,41*%
%TO.N,Red_LED*%
X158520000Y-99020000D03*
%TO.P,U1,42*%
%TO.N,Net-(U1-Pad42)*%
X161060000Y-99020000D03*
%TO.P,U1,43*%
%TO.N,I2C_SCL*%
X163600000Y-99020000D03*
%TO.P,U1,44*%
%TO.N,I2C_SDA*%
X166140000Y-99020000D03*
%TO.P,U1,45*%
%TO.N,Net-(U1-Pad45)*%
X168680000Y-99020000D03*
%TO.P,U1,46*%
%TO.N,Net-(U1-Pad46)*%
X171220000Y-99020000D03*
%TO.P,U1,47*%
%TO.N,Net-(U1-Pad47)*%
X173760000Y-99020000D03*
%TO.P,U1,48*%
%TO.N,ENABLE_3*%
X176300000Y-99020000D03*
%TO.P,U1,49*%
%TO.N,STEP_3*%
X178840000Y-99020000D03*
%TO.P,U1,50*%
%TO.N,DIRECTION_3*%
X181380000Y-99020000D03*
%TO.P,U1,51*%
%TO.N,3.3_V*%
X183920000Y-99020000D03*
%TO.P,U1,52*%
%TO.N,GND*%
X186460000Y-99020000D03*
%TO.P,U1,53*%
%TO.N,5_V*%
X189000000Y-99020000D03*
%TD*%
D15*
%TO.P,5V Reg,M*%
%TO.N,N/C*%
X171000000Y-117500000D03*
X157500000Y-104000000D03*
D11*
%TO.P,5V Reg,5*%
%TO.N,5_V*%
X171830000Y-103810000D03*
D12*
%TO.P,5V Reg,4*%
%TO.N,GND*%
X171830000Y-106350000D03*
%TO.P,5V Reg,3*%
X171830000Y-108890000D03*
D11*
%TO.P,5V Reg,2*%
%TO.N,12_V*%
X171830000Y-111430000D03*
%TO.P,5V Reg,1*%
%TO.N,Net-(U2-Pad1)*%
X171830000Y-113970000D03*
%TD*%
D16*
%TO.P,REF\u002A\u002A,1*%
%TO.N,N/C*%
X95000000Y-78000000D03*
%TD*%
%TO.P,REF\u002A\u002A,1*%
%TO.N,N/C*%
X95000000Y-150000000D03*
%TD*%
%TO.P,REF\u002A\u002A,1*%
%TO.N,N/C*%
X187000000Y-78000000D03*
%TD*%
%TO.P,REF\u002A\u002A,1*%
%TO.N,N/C*%
X187000000Y-150000000D03*
%TD*%
D13*
%TO.P,C3,2*%
%TO.N,GND*%
X132800000Y-131000000D03*
D14*
%TO.P,C3,1*%
%TO.N,12_V*%
X129300000Y-131000000D03*
%TD*%
D13*
%TO.P,C2,2*%
%TO.N,GND*%
X149800000Y-131000000D03*
D14*
%TO.P,C2,1*%
%TO.N,12_V*%
X146300000Y-131000000D03*
%TD*%
D13*
%TO.P,C1,2*%
%TO.N,GND*%
X166750000Y-131000000D03*
D14*
%TO.P,C1,1*%
%TO.N,12_V*%
X163250000Y-131000000D03*
%TD*%
D17*
%TO.P,SW1,A*%
%TO.N,Rot_A*%
X113000000Y-121500000D03*
D18*
%TO.P,SW1,C*%
%TO.N,GND*%
X113000000Y-124000000D03*
%TO.P,SW1,B*%
%TO.N,Rot_B*%
X113000000Y-126500000D03*
D19*
%TO.P,SW1,MP*%
%TO.N,N/C*%
X105500000Y-118400000D03*
X105500000Y-129600000D03*
D18*
%TO.P,SW1,S2*%
%TO.N,GND*%
X98500000Y-121500000D03*
%TO.P,SW1,S1*%
%TO.N,Button*%
X98500000Y-126500000D03*
%TD*%
D20*
%TO.P,S1,4*%
%TO.N,Net-(S1-Pad4)*%
X188500000Y-140540000D03*
X188500000Y-135460000D03*
%TO.P,S1,3*%
%TO.N,Net-(S1-Pad3)*%
X175800000Y-142700000D03*
%TO.P,S1,2*%
%TO.N,Net-(J7-Pad1)*%
X175800000Y-138000000D03*
D21*
%TO.P,S1,1*%
%TO.N,12_V*%
X175800000Y-133300000D03*
%TD*%
D22*
%TO.P,R3,2*%
%TO.N,GND*%
X121100000Y-131990000D03*
D13*
%TO.P,R3,1*%
%TO.N,Solenoid*%
X121100000Y-142150000D03*
%TD*%
D22*
%TO.P,R2,2*%
%TO.N,Green_LED*%
X127160000Y-118000000D03*
D13*
%TO.P,R2,1*%
%TO.N,Net-(D2-Pad2)*%
X117000000Y-118000000D03*
%TD*%
D22*
%TO.P,R1,2*%
%TO.N,Red_LED*%
X127160000Y-114000000D03*
D13*
%TO.P,R1,1*%
%TO.N,Net-(D1-Pad2)*%
X117000000Y-114000000D03*
%TD*%
D18*
%TO.P,Q1,3*%
%TO.N,GND*%
X95700000Y-133920000D03*
%TO.P,Q1,2*%
%TO.N,Net-(D3-Pad2)*%
X95700000Y-136460000D03*
D17*
%TO.P,Q1,1*%
%TO.N,Solenoid*%
X95700000Y-139000000D03*
%TD*%
D23*
%TO.P,J14,3*%
%TO.N,Servo_PWM*%
X183500000Y-113750000D03*
%TO.P,J14,2*%
%TO.N,5_V*%
X186040000Y-113750000D03*
D24*
%TO.P,J14,1*%
%TO.N,GND*%
X188580000Y-113750000D03*
%TD*%
D25*
%TO.P,J13,4*%
%TO.N,Net-(A3-Pad6)*%
X124630000Y-150000000D03*
%TO.P,J13,3*%
%TO.N,Net-(A3-Pad5)*%
X127170000Y-150000000D03*
%TO.P,J13,2*%
%TO.N,Net-(A3-Pad4)*%
X129710000Y-150000000D03*
%TO.P,J13,1*%
%TO.N,Net-(A3-Pad3)*%
%TA.AperFunction,ComponentPad*%
G36*
G01*
X133120000Y-149154999D02*
X133120000Y-150845001D01*
G75*
G02*
X132870001Y-151095000I-249999J0D01*
G01*
X131629999Y-151095000D01*
G75*
G02*
X131380000Y-150845001I0J249999D01*
G01*
X131380000Y-149154999D01*
G75*
G02*
X131629999Y-148905000I249999J0D01*
G01*
X132870001Y-148905000D01*
G75*
G02*
X133120000Y-149154999I0J-249999D01*
G01*
G37*
%TD.AperFunction*%
%TD*%
D26*
%TO.P,J15,2*%
%TO.N,Net-(D3-Pad2)*%
X112000000Y-144000000D03*
D27*
%TO.P,J15,1*%
%TO.N,12_V*%
X107000000Y-144000000D03*
%TD*%
D28*
%TO.P,J12,6*%
%TO.N,3.3_V*%
X133250000Y-122000000D03*
%TO.P,J12,5*%
%TO.N,Net-(A3-Pad12)*%
X133250000Y-124000000D03*
%TO.P,J12,4*%
%TO.N,3.3_V*%
X131250000Y-122000000D03*
%TO.P,J12,3*%
%TO.N,Net-(A3-Pad11)*%
X131250000Y-124000000D03*
%TO.P,J12,2*%
%TO.N,3.3_V*%
X129250000Y-122000000D03*
D29*
%TO.P,J12,1*%
%TO.N,Net-(A3-Pad10)*%
X129250000Y-124000000D03*
%TD*%
D25*
%TO.P,J11,4*%
%TO.N,Net-(A2-Pad6)*%
X144130000Y-150000000D03*
%TO.P,J11,3*%
%TO.N,Net-(A2-Pad5)*%
X146670000Y-150000000D03*
%TO.P,J11,2*%
%TO.N,Net-(A2-Pad4)*%
X149210000Y-150000000D03*
%TO.P,J11,1*%
%TO.N,Net-(A2-Pad3)*%
%TA.AperFunction,ComponentPad*%
G36*
G01*
X152620000Y-149154999D02*
X152620000Y-150845001D01*
G75*
G02*
X152370001Y-151095000I-249999J0D01*
G01*
X151129999Y-151095000D01*
G75*
G02*
X150880000Y-150845001I0J249999D01*
G01*
X150880000Y-149154999D01*
G75*
G02*
X151129999Y-148905000I249999J0D01*
G01*
X152370001Y-148905000D01*
G75*
G02*
X152620000Y-149154999I0J-249999D01*
G01*
G37*
%TD.AperFunction*%
%TD*%
D28*
%TO.P,J10,6*%
%TO.N,3.3_V*%
X150250000Y-122000000D03*
%TO.P,J10,5*%
%TO.N,Net-(A2-Pad12)*%
X150250000Y-124000000D03*
%TO.P,J10,4*%
%TO.N,3.3_V*%
X148250000Y-122000000D03*
%TO.P,J10,3*%
%TO.N,Net-(A2-Pad11)*%
X148250000Y-124000000D03*
%TO.P,J10,2*%
%TO.N,3.3_V*%
X146250000Y-122000000D03*
D29*
%TO.P,J10,1*%
%TO.N,Net-(A2-Pad10)*%
X146250000Y-124000000D03*
%TD*%
D25*
%TO.P,J9,4*%
%TO.N,Net-(A1-Pad6)*%
X163630000Y-150000000D03*
%TO.P,J9,3*%
%TO.N,Net-(A1-Pad5)*%
X166170000Y-150000000D03*
%TO.P,J9,2*%
%TO.N,Net-(A1-Pad4)*%
X168710000Y-150000000D03*
%TO.P,J9,1*%
%TO.N,Net-(A1-Pad3)*%
%TA.AperFunction,ComponentPad*%
G36*
G01*
X172120000Y-149154999D02*
X172120000Y-150845001D01*
G75*
G02*
X171870001Y-151095000I-249999J0D01*
G01*
X170629999Y-151095000D01*
G75*
G02*
X170380000Y-150845001I0J249999D01*
G01*
X170380000Y-149154999D01*
G75*
G02*
X170629999Y-148905000I249999J0D01*
G01*
X171870001Y-148905000D01*
G75*
G02*
X172120000Y-149154999I0J-249999D01*
G01*
G37*
%TD.AperFunction*%
%TD*%
D28*
%TO.P,J8,6*%
%TO.N,3.3_V*%
X167250000Y-122000000D03*
%TO.P,J8,5*%
%TO.N,Net-(A1-Pad12)*%
X167250000Y-124000000D03*
%TO.P,J8,4*%
%TO.N,3.3_V*%
X165250000Y-122000000D03*
%TO.P,J8,3*%
%TO.N,Net-(A1-Pad11)*%
X165250000Y-124000000D03*
%TO.P,J8,2*%
%TO.N,3.3_V*%
X163250000Y-122000000D03*
D29*
%TO.P,J8,1*%
%TO.N,Net-(A1-Pad10)*%
X163250000Y-124000000D03*
%TD*%
D30*
%TO.P,J7,3*%
%TO.N,Net-(J7-Pad3)*%
X185100000Y-120300000D03*
D31*
%TO.P,J7,2*%
%TO.N,GND*%
X188100000Y-125000000D03*
D32*
%TO.P,J7,1*%
%TO.N,Net-(J7-Pad1)*%
X182100000Y-125000000D03*
%TD*%
D33*
%TO.P,J6,2*%
%TO.N,Limit_3*%
X149600000Y-114490000D03*
%TO.P,J6,1*%
%TO.N,GND*%
%TA.AperFunction,ComponentPad*%
G36*
G01*
X148754999Y-111080000D02*
X150445001Y-111080000D01*
G75*
G02*
X150695000Y-111329999I0J-249999D01*
G01*
X150695000Y-112570001D01*
G75*
G02*
X150445001Y-112820000I-249999J0D01*
G01*
X148754999Y-112820000D01*
G75*
G02*
X148505000Y-112570001I0J249999D01*
G01*
X148505000Y-111329999D01*
G75*
G02*
X148754999Y-111080000I249999J0D01*
G01*
G37*
%TD.AperFunction*%
%TD*%
%TO.P,J5,2*%
%TO.N,Limit_2*%
X141600000Y-114490000D03*
%TO.P,J5,1*%
%TO.N,GND*%
%TA.AperFunction,ComponentPad*%
G36*
G01*
X140754999Y-111080000D02*
X142445001Y-111080000D01*
G75*
G02*
X142695000Y-111329999I0J-249999D01*
G01*
X142695000Y-112570001D01*
G75*
G02*
X142445001Y-112820000I-249999J0D01*
G01*
X140754999Y-112820000D01*
G75*
G02*
X140505000Y-112570001I0J249999D01*
G01*
X140505000Y-111329999D01*
G75*
G02*
X140754999Y-111080000I249999J0D01*
G01*
G37*
%TD.AperFunction*%
%TD*%
%TO.P,J4,2*%
%TO.N,Limit_1*%
X133500000Y-114590000D03*
%TO.P,J4,1*%
%TO.N,GND*%
%TA.AperFunction,ComponentPad*%
G36*
G01*
X132654999Y-111180000D02*
X134345001Y-111180000D01*
G75*
G02*
X134595000Y-111429999I0J-249999D01*
G01*
X134595000Y-112670001D01*
G75*
G02*
X134345001Y-112920000I-249999J0D01*
G01*
X132654999Y-112920000D01*
G75*
G02*
X132405000Y-112670001I0J249999D01*
G01*
X132405000Y-111429999D01*
G75*
G02*
X132654999Y-111180000I249999J0D01*
G01*
G37*
%TD.AperFunction*%
%TD*%
D23*
%TO.P,J3,4*%
%TO.N,3.3_V*%
X112220000Y-80550000D03*
%TO.P,J3,3*%
%TO.N,GND*%
X109680000Y-80550000D03*
%TO.P,J3,2*%
%TO.N,I2C_SCL*%
X107140000Y-80550000D03*
D24*
%TO.P,J3,1*%
%TO.N,I2C_SDA*%
X104600000Y-80550000D03*
%TD*%
D23*
%TO.P,J2,8*%
%TO.N,D25*%
X148340000Y-80500000D03*
%TO.P,J2,7*%
%TO.N,D26_TX1*%
X145800000Y-80500000D03*
%TO.P,J2,6*%
%TO.N,D27_RX1*%
X143260000Y-80500000D03*
%TO.P,J2,5*%
%TO.N,D28*%
X140720000Y-80500000D03*
%TO.P,J2,4*%
%TO.N,D29_PWM*%
X138180000Y-80500000D03*
%TO.P,J2,3*%
%TO.N,D30_PWM*%
X135640000Y-80500000D03*
%TO.P,J2,2*%
%TO.N,3.3_V*%
X133100000Y-80500000D03*
D24*
%TO.P,J2,1*%
%TO.N,GND*%
X130560000Y-80500000D03*
%TD*%
D23*
%TO.P,J1,8*%
%TO.N,A14_TX5*%
X130540000Y-102500000D03*
%TO.P,J1,7*%
%TO.N,A15_RX5*%
X133080000Y-102500000D03*
%TO.P,J1,6*%
%TO.N,A16_PWM*%
X135620000Y-102500000D03*
%TO.P,J1,5*%
%TO.N,A17_PWM*%
X138160000Y-102500000D03*
%TO.P,J1,4*%
%TO.N,A18_PWM_SDL1*%
X140700000Y-102500000D03*
%TO.P,J1,3*%
%TO.N,A19_PWM_SDA1*%
X143240000Y-102500000D03*
%TO.P,J1,2*%
%TO.N,3.3_V*%
X145780000Y-102500000D03*
D24*
%TO.P,J1,1*%
%TO.N,GND*%
X148320000Y-102500000D03*
%TD*%
D34*
%TO.P,D3,2*%
%TO.N,Net-(D3-Pad2)*%
X117600000Y-132040000D03*
D35*
%TO.P,D3,1*%
%TO.N,12_V*%
X117600000Y-142200000D03*
%TD*%
D36*
%TO.P,D2,2*%
%TO.N,Net-(D2-Pad2)*%
X101000000Y-111760000D03*
D37*
%TO.P,D2,1*%
%TO.N,GND*%
X101000000Y-114300000D03*
%TD*%
D36*
%TO.P,D1,2*%
%TO.N,Net-(D1-Pad2)*%
X110000000Y-111760000D03*
D37*
%TO.P,D1,1*%
%TO.N,GND*%
X110000000Y-114300000D03*
%TD*%
D38*
%TO.P,C9,2*%
%TO.N,GND*%
X175750000Y-104000000D03*
%TO.P,C9,1*%
%TO.N,5_V*%
X178250000Y-104000000D03*
%TD*%
D13*
%TO.P,C8,2*%
%TO.N,GND*%
X175750000Y-109500000D03*
D14*
%TO.P,C8,1*%
%TO.N,5_V*%
X178250000Y-109500000D03*
%TD*%
D38*
%TO.P,C7,2*%
%TO.N,GND*%
X176300000Y-125200000D03*
%TO.P,C7,1*%
%TO.N,12_V*%
X178800000Y-125200000D03*
%TD*%
D13*
%TO.P,C6,2*%
%TO.N,GND*%
X183650000Y-105600000D03*
D14*
%TO.P,C6,1*%
%TO.N,5_V*%
X183650000Y-103600000D03*
%TD*%
D13*
%TO.P,C5,2*%
%TO.N,GND*%
X175650000Y-118200000D03*
D14*
%TO.P,C5,1*%
%TO.N,12_V*%
X178150000Y-118200000D03*
%TD*%
D38*
%TO.P,C4,2*%
%TO.N,GND*%
X188950000Y-106100000D03*
%TO.P,C4,1*%
%TO.N,5_V*%
X188950000Y-103600000D03*
%TD*%
D22*
%TO.P,A3,16*%
%TO.N,DIRECTION_3*%
X137300000Y-127150000D03*
%TO.P,A3,8*%
%TO.N,12_V*%
X124600000Y-144930000D03*
%TO.P,A3,15*%
%TO.N,STEP_3*%
X137300000Y-129690000D03*
%TO.P,A3,7*%
%TO.N,GND*%
X124600000Y-142390000D03*
%TO.P,A3,14*%
%TO.N,3.3_V*%
X137300000Y-132230000D03*
%TO.P,A3,6*%
%TO.N,Net-(A3-Pad6)*%
X124600000Y-139850000D03*
%TO.P,A3,13*%
%TO.N,3.3_V*%
X137300000Y-134770000D03*
%TO.P,A3,5*%
%TO.N,Net-(A3-Pad5)*%
X124600000Y-137310000D03*
%TO.P,A3,12*%
%TO.N,Net-(A3-Pad12)*%
X137300000Y-137310000D03*
%TO.P,A3,4*%
%TO.N,Net-(A3-Pad4)*%
X124600000Y-134770000D03*
%TO.P,A3,11*%
%TO.N,Net-(A3-Pad11)*%
X137300000Y-139850000D03*
%TO.P,A3,3*%
%TO.N,Net-(A3-Pad3)*%
X124600000Y-132230000D03*
%TO.P,A3,10*%
%TO.N,Net-(A3-Pad10)*%
X137300000Y-142390000D03*
%TO.P,A3,2*%
%TO.N,Net-(A3-Pad2)*%
X124600000Y-129690000D03*
%TO.P,A3,9*%
%TO.N,ENABLE_3*%
X137300000Y-144930000D03*
D14*
%TO.P,A3,1*%
%TO.N,GND*%
X124600000Y-127150000D03*
%TD*%
D22*
%TO.P,A2,16*%
%TO.N,DIRECTION_2*%
X154300000Y-127150000D03*
%TO.P,A2,8*%
%TO.N,12_V*%
X141600000Y-144930000D03*
%TO.P,A2,15*%
%TO.N,STEP_2*%
X154300000Y-129690000D03*
%TO.P,A2,7*%
%TO.N,GND*%
X141600000Y-142390000D03*
%TO.P,A2,14*%
%TO.N,3.3_V*%
X154300000Y-132230000D03*
%TO.P,A2,6*%
%TO.N,Net-(A2-Pad6)*%
X141600000Y-139850000D03*
%TO.P,A2,13*%
%TO.N,3.3_V*%
X154300000Y-134770000D03*
%TO.P,A2,5*%
%TO.N,Net-(A2-Pad5)*%
X141600000Y-137310000D03*
%TO.P,A2,12*%
%TO.N,Net-(A2-Pad12)*%
X154300000Y-137310000D03*
%TO.P,A2,4*%
%TO.N,Net-(A2-Pad4)*%
X141600000Y-134770000D03*
%TO.P,A2,11*%
%TO.N,Net-(A2-Pad11)*%
X154300000Y-139850000D03*
%TO.P,A2,3*%
%TO.N,Net-(A2-Pad3)*%
X141600000Y-132230000D03*
%TO.P,A2,10*%
%TO.N,Net-(A2-Pad10)*%
X154300000Y-142390000D03*
%TO.P,A2,2*%
%TO.N,Net-(A2-Pad2)*%
X141600000Y-129690000D03*
%TO.P,A2,9*%
%TO.N,ENABLE_2*%
X154300000Y-144930000D03*
D14*
%TO.P,A2,1*%
%TO.N,GND*%
X141600000Y-127150000D03*
%TD*%
D22*
%TO.P,A1,16*%
%TO.N,DIRECTION_1*%
X171300000Y-127150000D03*
%TO.P,A1,8*%
%TO.N,12_V*%
X158600000Y-144930000D03*
%TO.P,A1,15*%
%TO.N,STEP_1*%
X171300000Y-129690000D03*
%TO.P,A1,7*%
%TO.N,GND*%
X158600000Y-142390000D03*
%TO.P,A1,14*%
%TO.N,3.3_V*%
X171300000Y-132230000D03*
%TO.P,A1,6*%
%TO.N,Net-(A1-Pad6)*%
X158600000Y-139850000D03*
%TO.P,A1,13*%
%TO.N,3.3_V*%
X171300000Y-134770000D03*
%TO.P,A1,5*%
%TO.N,Net-(A1-Pad5)*%
X158600000Y-137310000D03*
%TO.P,A1,12*%
%TO.N,Net-(A1-Pad12)*%
X171300000Y-137310000D03*
%TO.P,A1,4*%
%TO.N,Net-(A1-Pad4)*%
X158600000Y-134770000D03*
%TO.P,A1,11*%
%TO.N,Net-(A1-Pad11)*%
X171300000Y-139850000D03*
%TO.P,A1,3*%
%TO.N,Net-(A1-Pad3)*%
X158600000Y-132230000D03*
%TO.P,A1,10*%
%TO.N,Net-(A1-Pad10)*%
X171300000Y-142390000D03*
%TO.P,A1,2*%
%TO.N,Net-(A1-Pad2)*%
X158600000Y-129690000D03*
%TO.P,A1,9*%
%TO.N,ENABLE_1*%
X171300000Y-144930000D03*
D14*
%TO.P,A1,1*%
%TO.N,GND*%
X158600000Y-127150000D03*
%TD*%
D39*
%TO.N,ENABLE_3*%
X140100000Y-119300000D03*
%TO.N,STEP_3*%
X139300000Y-121200000D03*
%TO.N,DIRECTION_3*%
X138500000Y-123100000D03*
%TD*%
D40*
%TO.N,Net-(D1-Pad2)*%
X114760000Y-111760000D02*
X117000000Y-114000000D01*
X110000000Y-111760000D02*
X114760000Y-111760000D01*
%TO.N,Net-(D2-Pad2)*%
X101000000Y-111760000D02*
X104764990Y-115524990D01*
X104764990Y-115524990D02*
X108297810Y-115524990D01*
X110772820Y-118000000D02*
X117000000Y-118000000D01*
X108297810Y-115524990D02*
X110772820Y-118000000D01*
D41*
%TO.N,Net-(D3-Pad2)*%
X117600000Y-132040000D02*
X114860000Y-132040000D01*
X114860000Y-132040000D02*
X112000000Y-134900000D01*
X110440000Y-136460000D02*
X112000000Y-134900000D01*
X95700000Y-136460000D02*
X110440000Y-136460000D01*
X112000000Y-137900000D02*
X112000000Y-144000000D01*
X112000000Y-134900000D02*
X110500000Y-136400000D01*
X110500000Y-136400000D02*
X112000000Y-137900000D01*
D40*
%TO.N,I2C_SCL*%
X107140000Y-84680000D02*
X107120000Y-84700000D01*
X107140000Y-80550000D02*
X107140000Y-84680000D01*
X124999989Y-92499990D02*
X124999989Y-79499989D01*
X124999989Y-79499989D02*
X124000055Y-78500055D01*
X109189945Y-78500055D02*
X107140000Y-80550000D01*
X161379992Y-96799992D02*
X129299991Y-96799992D01*
X124000055Y-78500055D02*
X109189945Y-78500055D01*
X129299991Y-96799992D02*
X124999989Y-92499990D01*
X163600000Y-99020000D02*
X161379992Y-96799992D01*
%TO.N,I2C_SDA*%
X104580000Y-80570000D02*
X104600000Y-80550000D01*
X104580000Y-84700000D02*
X104580000Y-80570000D01*
X124186455Y-78050044D02*
X107099956Y-78050044D01*
X107099956Y-78050044D02*
X104600000Y-80550000D01*
X125450000Y-79313589D02*
X124186455Y-78050044D01*
X166140000Y-99020000D02*
X163469981Y-96349981D01*
X125450000Y-92313590D02*
X125450000Y-79313589D01*
X163469981Y-96349981D02*
X129486391Y-96349981D01*
X129486391Y-96349981D02*
X125450000Y-92313590D01*
%TO.N,Solenoid*%
X163880000Y-83780000D02*
X164110000Y-83780000D01*
X156070000Y-76250000D02*
X163600000Y-83780000D01*
X103540767Y-76250000D02*
X156070000Y-76250000D01*
X101299967Y-86350033D02*
X101299967Y-78490800D01*
X121100000Y-144700000D02*
X119400000Y-146400000D01*
X101299967Y-78490800D02*
X103540767Y-76250000D01*
X121100000Y-142150000D02*
X121100000Y-144700000D01*
X103100000Y-146400000D02*
X93250000Y-136550000D01*
X93250000Y-94400000D02*
X101299967Y-86350033D01*
X119400000Y-146400000D02*
X103100000Y-146400000D01*
X93250000Y-136550000D02*
X93250000Y-94400000D01*
%TO.N,Red_LED*%
X127160000Y-99340000D02*
X127160000Y-114000000D01*
X129250000Y-97250000D02*
X127160000Y-99340000D01*
X158520000Y-99020000D02*
X156750000Y-97250000D01*
X156750000Y-97250000D02*
X156250000Y-97250000D01*
X156250000Y-97250000D02*
X129250000Y-97250000D01*
%TO.N,Green_LED*%
X128500000Y-116660000D02*
X127160000Y-118000000D01*
X129875000Y-97750000D02*
X128500000Y-99125000D01*
X128500000Y-99125000D02*
X128500000Y-116660000D01*
X154710000Y-97750000D02*
X154450000Y-97750000D01*
X155980000Y-99020000D02*
X154710000Y-97750000D01*
X154450000Y-97750000D02*
X129875000Y-97750000D01*
%TO.N,Rot_A*%
X101100000Y-121500000D02*
X111750000Y-121500000D01*
X94150022Y-114550022D02*
X101100000Y-121500000D01*
X111750000Y-121500000D02*
X113000000Y-121500000D01*
X151890022Y-77150022D02*
X103913567Y-77150022D01*
X94150022Y-94772798D02*
X94150022Y-114550022D01*
X102199989Y-78863600D02*
X102199989Y-86722833D01*
X103913567Y-77150022D02*
X102199989Y-78863600D01*
X102199989Y-86722833D02*
X94150022Y-94772798D01*
X158520000Y-83780000D02*
X151890022Y-77150022D01*
%TO.N,Rot_B*%
X108111410Y-115975000D02*
X96225000Y-115975000D01*
X111736410Y-119600000D02*
X108111410Y-115975000D01*
X104099967Y-77600033D02*
X149800033Y-77600033D01*
X113000000Y-126500000D02*
X114800000Y-124700000D01*
X94600033Y-114350033D02*
X94600033Y-94959200D01*
X114800000Y-120400000D02*
X114000000Y-119600000D01*
X149800033Y-77600033D02*
X155980000Y-83780000D01*
X96225000Y-115975000D02*
X94600033Y-114350033D01*
X114800000Y-124700000D02*
X114800000Y-120400000D01*
X102650000Y-79050000D02*
X104099967Y-77600033D01*
X114000000Y-119600000D02*
X111736410Y-119600000D01*
X102650000Y-86909233D02*
X102650000Y-79050000D01*
X94600033Y-94959200D02*
X102650000Y-86909233D01*
%TO.N,Button*%
X97500001Y-125500001D02*
X98500000Y-126500000D01*
X93700011Y-121700011D02*
X97500001Y-125500001D01*
X161060000Y-83780000D02*
X153980011Y-76700011D01*
X93700011Y-94586399D02*
X93700011Y-121700011D01*
X101749978Y-78677200D02*
X101749978Y-86536433D01*
X101749978Y-86536433D02*
X93700011Y-94586399D01*
X153980011Y-76700011D02*
X103727167Y-76700011D01*
X103727167Y-76700011D02*
X101749978Y-78677200D01*
%TO.N,ENABLE_3*%
X151000000Y-116500000D02*
X166750000Y-100750000D01*
X140100000Y-119300000D02*
X142900000Y-116500000D01*
X142900000Y-116500000D02*
X151000000Y-116500000D01*
X174570000Y-100750000D02*
X166750000Y-100750000D01*
X176300000Y-99020000D02*
X174570000Y-100750000D01*
%TO.N,STEP_3*%
X151136410Y-117000000D02*
X143500000Y-117000000D01*
X166886410Y-101250000D02*
X151136410Y-117000000D01*
X143500000Y-117000000D02*
X139300000Y-121200000D01*
X176610000Y-101250000D02*
X178840000Y-99020000D01*
X166886410Y-101250000D02*
X176610000Y-101250000D01*
%TO.N,DIRECTION_3*%
X151272820Y-117500000D02*
X167022820Y-101750000D01*
X138500000Y-123100000D02*
X144100000Y-117500000D01*
X144100000Y-117500000D02*
X151272820Y-117500000D01*
X178650000Y-101750000D02*
X167022820Y-101750000D01*
X181380000Y-99020000D02*
X178650000Y-101750000D01*
%TD*%
M02*
