M48
; DRILL file {KiCad (5.1.6)-1} date 11/25/20 15:39:48
; FORMAT={-:-/ absolute / metric / decimal}
; #@! TF.CreationDate,2020-11-25T15:39:48-05:00
; #@! TF.GenerationSoftware,Kicad,Pcbnew,(5.1.6)-1
FMAT,2
METRIC
T1C0.400
T2C0.700
T3C0.800
T4C0.900
T5C1.000
T6C1.020
T7C1.100
T8C1.190
T9C1.400
T10C1.500
T11C1.850
T12C2.180
T13C2.200
T14C3.200
%
G90
G05
T1
X138.5Y-123.1
X139.3Y-121.2
X140.1Y-119.3
T2
X176.3Y-125.2
X178.8Y-125.2
X175.75Y-104.0
X178.25Y-104.0
X188.95Y-103.6
X188.95Y-106.1
T3
X117.0Y-114.0
X127.16Y-114.0
X141.6Y-127.15
X141.6Y-129.69
X141.6Y-132.23
X141.6Y-134.77
X141.6Y-137.31
X141.6Y-139.85
X141.6Y-142.39
X141.6Y-144.93
X154.3Y-127.15
X154.3Y-129.69
X154.3Y-132.23
X154.3Y-134.77
X154.3Y-137.31
X154.3Y-139.85
X154.3Y-142.39
X154.3Y-144.93
X129.3Y-131.0
X132.8Y-131.0
X117.0Y-118.0
X127.16Y-118.0
X124.6Y-127.15
X124.6Y-129.69
X124.6Y-132.23
X124.6Y-134.77
X124.6Y-137.31
X124.6Y-139.85
X124.6Y-142.39
X124.6Y-144.93
X137.3Y-127.15
X137.3Y-129.69
X137.3Y-132.23
X137.3Y-134.77
X137.3Y-137.31
X137.3Y-139.85
X137.3Y-142.39
X137.3Y-144.93
X146.3Y-131.0
X149.8Y-131.0
X121.1Y-131.99
X121.1Y-142.15
X129.25Y-122.0
X129.25Y-124.0
X131.25Y-122.0
X131.25Y-124.0
X133.25Y-122.0
X133.25Y-124.0
X158.6Y-127.15
X158.6Y-129.69
X158.6Y-132.23
X158.6Y-134.77
X158.6Y-137.31
X158.6Y-139.85
X158.6Y-142.39
X158.6Y-144.93
X171.3Y-127.15
X171.3Y-129.69
X171.3Y-132.23
X171.3Y-134.77
X171.3Y-137.31
X171.3Y-139.85
X171.3Y-142.39
X171.3Y-144.93
X146.25Y-122.0
X146.25Y-124.0
X148.25Y-122.0
X148.25Y-124.0
X150.25Y-122.0
X150.25Y-124.0
X183.65Y-103.6
X183.65Y-105.6
X175.75Y-109.5
X178.25Y-109.5
X163.25Y-122.0
X163.25Y-124.0
X165.25Y-122.0
X165.25Y-124.0
X167.25Y-122.0
X167.25Y-124.0
X175.65Y-118.2
X178.15Y-118.2
X163.25Y-131.0
X166.75Y-131.0
T4
X110.0Y-111.76
X110.0Y-114.3
X101.0Y-111.76
X101.0Y-114.3
T5
X130.54Y-102.5
X133.08Y-102.5
X135.62Y-102.5
X138.16Y-102.5
X140.7Y-102.5
X143.24Y-102.5
X145.78Y-102.5
X148.32Y-102.5
X98.5Y-121.5
X98.5Y-126.5
X113.0Y-121.5
X113.0Y-124.0
X113.0Y-126.5
X183.5Y-113.75
X186.04Y-113.75
X188.58Y-113.75
X130.56Y-80.5
X133.1Y-80.5
X135.64Y-80.5
X138.18Y-80.5
X140.72Y-80.5
X143.26Y-80.5
X145.8Y-80.5
X148.34Y-80.5
X95.7Y-133.92
X95.7Y-136.46
X95.7Y-139.0
X104.6Y-80.55
X107.14Y-80.55
X109.68Y-80.55
X112.22Y-80.55
T6
X171.83Y-103.81
X171.83Y-106.35
X171.83Y-108.89
X171.83Y-111.43
X171.83Y-113.97
X104.58Y-84.7
X107.12Y-84.7
X109.66Y-84.7
X112.2Y-84.7
T7
X130.58Y-83.78
X130.58Y-99.02
X133.12Y-83.78
X133.12Y-99.02
X135.66Y-83.78
X135.66Y-99.02
X138.2Y-83.78
X138.2Y-99.02
X140.74Y-83.78
X140.74Y-99.02
X143.28Y-83.78
X143.28Y-99.02
X145.82Y-83.78
X145.82Y-99.02
X148.36Y-83.78
X148.36Y-99.02
X150.9Y-83.78
X150.9Y-99.02
X153.44Y-83.78
X153.44Y-99.02
X155.98Y-83.78
X155.98Y-99.02
X158.52Y-83.78
X158.52Y-99.02
X161.06Y-83.78
X161.06Y-99.02
X163.6Y-83.78
X163.6Y-99.02
X166.14Y-83.78
X166.14Y-99.02
X168.68Y-83.78
X168.68Y-99.02
X171.22Y-83.78
X171.22Y-99.02
X173.76Y-83.78
X173.76Y-99.02
X176.3Y-83.78
X176.3Y-99.02
X178.84Y-83.78
X178.84Y-99.02
X181.38Y-83.78
X181.38Y-99.02
X183.92Y-83.78
X183.92Y-99.02
X186.46Y-83.78
X186.46Y-99.02
X189.0Y-83.78
X189.0Y-99.02
X117.6Y-132.04
X117.6Y-142.2
T8
X149.6Y-111.95
X149.6Y-114.49
X144.13Y-150.0
X146.67Y-150.0
X149.21Y-150.0
X151.75Y-150.0
X124.63Y-150.0
X127.17Y-150.0
X129.71Y-150.0
X132.25Y-150.0
X141.6Y-111.95
X141.6Y-114.49
X133.5Y-112.05
X133.5Y-114.59
X163.63Y-150.0
X166.17Y-150.0
X168.71Y-150.0
X171.25Y-150.0
T9
X107.0Y-144.0
X112.0Y-144.0
T11
X175.8Y-133.3
X175.8Y-138.0
X175.8Y-142.7
X188.5Y-135.46
X188.5Y-140.54
T12
X157.5Y-104.0
X171.0Y-117.5
T14
X95.0Y-78.0
X187.0Y-78.0
X95.0Y-150.0
X187.0Y-150.0
T5
G00X182.1Y-123.75
M15
G01X182.1Y-126.25
M16
G05
G00X184.1Y-120.3
M15
G01X186.1Y-120.3
M16
G05
G00X188.1Y-124.0
M15
G01X188.1Y-126.0
M16
G05
T10
G00X106.15Y-118.4
M15
G01X104.85Y-118.4
M16
G05
G00X106.15Y-129.6
M15
G01X104.85Y-129.6
M16
G05
T13
G00X98.9Y-85.05
M15
G01X97.1Y-85.05
M16
G05
G00X98.9Y-108.25
M15
G01X97.1Y-108.25
M16
G05
G00X119.6Y-85.05
M15
G01X117.8Y-85.05
M16
G05
G00X119.6Y-108.25
M15
G01X117.8Y-108.25
M16
G05
T0
M30
