%TF.GenerationSoftware,KiCad,Pcbnew,(5.1.6)-1*%
%TF.CreationDate,2020-11-25T15:39:46-05:00*%
%TF.ProjectId,CNC_Board,434e435f-426f-4617-9264-2e6b69636164,rev?*%
%TF.SameCoordinates,Original*%
%TF.FileFunction,Soldermask,Top*%
%TF.FilePolarity,Negative*%
%FSLAX46Y46*%
G04 Gerber Fmt 4.6, Leading zero omitted, Abs format (unit mm)*
G04 Created by KiCad (PCBNEW (5.1.6)-1) date 2020-11-25 15:39:46*
%MOMM*%
%LPD*%
G01*
G04 APERTURE LIST*
%ADD10O,5.000000X3.000000*%
%ADD11C,2.040000*%
%ADD12R,2.040000X2.040000*%
%ADD13C,1.600000*%
%ADD14R,1.600000X1.600000*%
%ADD15C,3.000000*%
%ADD16C,6.400000*%
%ADD17R,2.000000X2.000000*%
%ADD18C,2.000000*%
%ADD19R,3.200000X2.000000*%
%ADD20C,2.850000*%
%ADD21R,2.850000X2.850000*%
%ADD22O,1.600000X1.600000*%
%ADD23O,1.700000X1.700000*%
%ADD24R,1.700000X1.700000*%
%ADD25O,1.740000X2.190000*%
%ADD26C,2.100000*%
%ADD27R,2.100000X2.100000*%
%ADD28O,1.350000X1.350000*%
%ADD29R,1.350000X1.350000*%
%ADD30O,4.500000X2.250000*%
%ADD31O,2.250000X4.500000*%
%ADD32O,2.500000X5.000000*%
%ADD33O,2.190000X1.740000*%
%ADD34O,2.200000X2.200000*%
%ADD35R,2.200000X2.200000*%
%ADD36C,1.800000*%
%ADD37R,1.800000X1.800000*%
%ADD38C,1.400000*%
G04 APERTURE END LIST*
D10*
%TO.C,U3*%
X98000000Y-108250000D03*
X118700000Y-108250000D03*
X98000000Y-85050000D03*
X118700000Y-85050000D03*
D11*
X104580000Y-84700000D03*
X107120000Y-84700000D03*
D12*
X109660000Y-84700000D03*
D11*
X112200000Y-84700000D03*
%TD*%
D13*
%TO.C,U1*%
X148360000Y-83780000D03*
X145820000Y-83780000D03*
X143280000Y-83780000D03*
X140740000Y-83780000D03*
X150900000Y-83780000D03*
X153440000Y-83780000D03*
X155980000Y-83780000D03*
X138200000Y-83780000D03*
X135660000Y-83780000D03*
X133120000Y-83780000D03*
X130580000Y-83780000D03*
X130580000Y-99020000D03*
X133120000Y-99020000D03*
X135660000Y-99020000D03*
X138200000Y-99020000D03*
X140740000Y-99020000D03*
X143280000Y-99020000D03*
X145820000Y-99020000D03*
X148360000Y-99020000D03*
X158520000Y-83780000D03*
X161060000Y-83780000D03*
X163600000Y-83780000D03*
X166140000Y-83780000D03*
X168680000Y-83780000D03*
X171220000Y-83780000D03*
X173760000Y-83780000D03*
X176300000Y-83780000D03*
X178840000Y-83780000D03*
X181380000Y-83780000D03*
X183920000Y-83780000D03*
X186460000Y-83780000D03*
D14*
X189000000Y-83780000D03*
D13*
X150900000Y-99020000D03*
X153440000Y-99020000D03*
X155980000Y-99020000D03*
X158520000Y-99020000D03*
X161060000Y-99020000D03*
X163600000Y-99020000D03*
X166140000Y-99020000D03*
X168680000Y-99020000D03*
X171220000Y-99020000D03*
X173760000Y-99020000D03*
X176300000Y-99020000D03*
X178840000Y-99020000D03*
X181380000Y-99020000D03*
X183920000Y-99020000D03*
X186460000Y-99020000D03*
X189000000Y-99020000D03*
%TD*%
D15*
%TO.C,5V Reg*%
X171000000Y-117500000D03*
X157500000Y-104000000D03*
D11*
X171830000Y-103810000D03*
D12*
X171830000Y-106350000D03*
X171830000Y-108890000D03*
D11*
X171830000Y-111430000D03*
X171830000Y-113970000D03*
%TD*%
D16*
%TO.C,REF\u002A\u002A*%
X95000000Y-78000000D03*
%TD*%
%TO.C,REF\u002A\u002A*%
X95000000Y-150000000D03*
%TD*%
%TO.C,REF\u002A\u002A*%
X187000000Y-78000000D03*
%TD*%
%TO.C,REF\u002A\u002A*%
X187000000Y-150000000D03*
%TD*%
D13*
%TO.C,C3*%
X132800000Y-131000000D03*
D14*
X129300000Y-131000000D03*
%TD*%
D13*
%TO.C,C2*%
X149800000Y-131000000D03*
D14*
X146300000Y-131000000D03*
%TD*%
D13*
%TO.C,C1*%
X166750000Y-131000000D03*
D14*
X163250000Y-131000000D03*
%TD*%
D17*
%TO.C,SW1*%
X113000000Y-121500000D03*
D18*
X113000000Y-124000000D03*
X113000000Y-126500000D03*
D19*
X105500000Y-118400000D03*
X105500000Y-129600000D03*
D18*
X98500000Y-121500000D03*
X98500000Y-126500000D03*
%TD*%
D20*
%TO.C,S1*%
X188500000Y-140540000D03*
X188500000Y-135460000D03*
X175800000Y-142700000D03*
X175800000Y-138000000D03*
D21*
X175800000Y-133300000D03*
%TD*%
D22*
%TO.C,R3*%
X121100000Y-131990000D03*
D13*
X121100000Y-142150000D03*
%TD*%
D22*
%TO.C,R2*%
X127160000Y-118000000D03*
D13*
X117000000Y-118000000D03*
%TD*%
D22*
%TO.C,R1*%
X127160000Y-114000000D03*
D13*
X117000000Y-114000000D03*
%TD*%
D18*
%TO.C,Q1*%
X95700000Y-133920000D03*
X95700000Y-136460000D03*
D17*
X95700000Y-139000000D03*
%TD*%
D23*
%TO.C,J14*%
X183500000Y-113750000D03*
X186040000Y-113750000D03*
D24*
X188580000Y-113750000D03*
%TD*%
D25*
%TO.C,J13*%
X124630000Y-150000000D03*
X127170000Y-150000000D03*
X129710000Y-150000000D03*
G36*
G01*
X133120000Y-149154999D02*
X133120000Y-150845001D01*
G75*
G02*
X132870001Y-151095000I-249999J0D01*
G01*
X131629999Y-151095000D01*
G75*
G02*
X131380000Y-150845001I0J249999D01*
G01*
X131380000Y-149154999D01*
G75*
G02*
X131629999Y-148905000I249999J0D01*
G01*
X132870001Y-148905000D01*
G75*
G02*
X133120000Y-149154999I0J-249999D01*
G01*
G37*
%TD*%
D26*
%TO.C,J15*%
X112000000Y-144000000D03*
D27*
X107000000Y-144000000D03*
%TD*%
D28*
%TO.C,J12*%
X133250000Y-122000000D03*
X133250000Y-124000000D03*
X131250000Y-122000000D03*
X131250000Y-124000000D03*
X129250000Y-122000000D03*
D29*
X129250000Y-124000000D03*
%TD*%
D25*
%TO.C,J11*%
X144130000Y-150000000D03*
X146670000Y-150000000D03*
X149210000Y-150000000D03*
G36*
G01*
X152620000Y-149154999D02*
X152620000Y-150845001D01*
G75*
G02*
X152370001Y-151095000I-249999J0D01*
G01*
X151129999Y-151095000D01*
G75*
G02*
X150880000Y-150845001I0J249999D01*
G01*
X150880000Y-149154999D01*
G75*
G02*
X151129999Y-148905000I249999J0D01*
G01*
X152370001Y-148905000D01*
G75*
G02*
X152620000Y-149154999I0J-249999D01*
G01*
G37*
%TD*%
D28*
%TO.C,J10*%
X150250000Y-122000000D03*
X150250000Y-124000000D03*
X148250000Y-122000000D03*
X148250000Y-124000000D03*
X146250000Y-122000000D03*
D29*
X146250000Y-124000000D03*
%TD*%
D25*
%TO.C,J9*%
X163630000Y-150000000D03*
X166170000Y-150000000D03*
X168710000Y-150000000D03*
G36*
G01*
X172120000Y-149154999D02*
X172120000Y-150845001D01*
G75*
G02*
X171870001Y-151095000I-249999J0D01*
G01*
X170629999Y-151095000D01*
G75*
G02*
X170380000Y-150845001I0J249999D01*
G01*
X170380000Y-149154999D01*
G75*
G02*
X170629999Y-148905000I249999J0D01*
G01*
X171870001Y-148905000D01*
G75*
G02*
X172120000Y-149154999I0J-249999D01*
G01*
G37*
%TD*%
D28*
%TO.C,J8*%
X167250000Y-122000000D03*
X167250000Y-124000000D03*
X165250000Y-122000000D03*
X165250000Y-124000000D03*
X163250000Y-122000000D03*
D29*
X163250000Y-124000000D03*
%TD*%
D30*
%TO.C,J7*%
X185100000Y-120300000D03*
D31*
X188100000Y-125000000D03*
D32*
X182100000Y-125000000D03*
%TD*%
D33*
%TO.C,J6*%
X149600000Y-114490000D03*
G36*
G01*
X148754999Y-111080000D02*
X150445001Y-111080000D01*
G75*
G02*
X150695000Y-111329999I0J-249999D01*
G01*
X150695000Y-112570001D01*
G75*
G02*
X150445001Y-112820000I-249999J0D01*
G01*
X148754999Y-112820000D01*
G75*
G02*
X148505000Y-112570001I0J249999D01*
G01*
X148505000Y-111329999D01*
G75*
G02*
X148754999Y-111080000I249999J0D01*
G01*
G37*
%TD*%
%TO.C,J5*%
X141600000Y-114490000D03*
G36*
G01*
X140754999Y-111080000D02*
X142445001Y-111080000D01*
G75*
G02*
X142695000Y-111329999I0J-249999D01*
G01*
X142695000Y-112570001D01*
G75*
G02*
X142445001Y-112820000I-249999J0D01*
G01*
X140754999Y-112820000D01*
G75*
G02*
X140505000Y-112570001I0J249999D01*
G01*
X140505000Y-111329999D01*
G75*
G02*
X140754999Y-111080000I249999J0D01*
G01*
G37*
%TD*%
%TO.C,J4*%
X133500000Y-114590000D03*
G36*
G01*
X132654999Y-111180000D02*
X134345001Y-111180000D01*
G75*
G02*
X134595000Y-111429999I0J-249999D01*
G01*
X134595000Y-112670001D01*
G75*
G02*
X134345001Y-112920000I-249999J0D01*
G01*
X132654999Y-112920000D01*
G75*
G02*
X132405000Y-112670001I0J249999D01*
G01*
X132405000Y-111429999D01*
G75*
G02*
X132654999Y-111180000I249999J0D01*
G01*
G37*
%TD*%
D23*
%TO.C,J3*%
X112220000Y-80550000D03*
X109680000Y-80550000D03*
X107140000Y-80550000D03*
D24*
X104600000Y-80550000D03*
%TD*%
D23*
%TO.C,J2*%
X148340000Y-80500000D03*
X145800000Y-80500000D03*
X143260000Y-80500000D03*
X140720000Y-80500000D03*
X138180000Y-80500000D03*
X135640000Y-80500000D03*
X133100000Y-80500000D03*
D24*
X130560000Y-80500000D03*
%TD*%
D23*
%TO.C,J1*%
X130540000Y-102500000D03*
X133080000Y-102500000D03*
X135620000Y-102500000D03*
X138160000Y-102500000D03*
X140700000Y-102500000D03*
X143240000Y-102500000D03*
X145780000Y-102500000D03*
D24*
X148320000Y-102500000D03*
%TD*%
D34*
%TO.C,D3*%
X117600000Y-132040000D03*
D35*
X117600000Y-142200000D03*
%TD*%
D36*
%TO.C,D2*%
X101000000Y-111760000D03*
D37*
X101000000Y-114300000D03*
%TD*%
D36*
%TO.C,D1*%
X110000000Y-111760000D03*
D37*
X110000000Y-114300000D03*
%TD*%
D38*
%TO.C,C9*%
X175750000Y-104000000D03*
X178250000Y-104000000D03*
%TD*%
D13*
%TO.C,C8*%
X175750000Y-109500000D03*
D14*
X178250000Y-109500000D03*
%TD*%
D38*
%TO.C,C7*%
X176300000Y-125200000D03*
X178800000Y-125200000D03*
%TD*%
D13*
%TO.C,C6*%
X183650000Y-105600000D03*
D14*
X183650000Y-103600000D03*
%TD*%
D13*
%TO.C,C5*%
X175650000Y-118200000D03*
D14*
X178150000Y-118200000D03*
%TD*%
D38*
%TO.C,C4*%
X188950000Y-106100000D03*
X188950000Y-103600000D03*
%TD*%
D22*
%TO.C,A3*%
X137300000Y-127150000D03*
X124600000Y-144930000D03*
X137300000Y-129690000D03*
X124600000Y-142390000D03*
X137300000Y-132230000D03*
X124600000Y-139850000D03*
X137300000Y-134770000D03*
X124600000Y-137310000D03*
X137300000Y-137310000D03*
X124600000Y-134770000D03*
X137300000Y-139850000D03*
X124600000Y-132230000D03*
X137300000Y-142390000D03*
X124600000Y-129690000D03*
X137300000Y-144930000D03*
D14*
X124600000Y-127150000D03*
%TD*%
D22*
%TO.C,A2*%
X154300000Y-127150000D03*
X141600000Y-144930000D03*
X154300000Y-129690000D03*
X141600000Y-142390000D03*
X154300000Y-132230000D03*
X141600000Y-139850000D03*
X154300000Y-134770000D03*
X141600000Y-137310000D03*
X154300000Y-137310000D03*
X141600000Y-134770000D03*
X154300000Y-139850000D03*
X141600000Y-132230000D03*
X154300000Y-142390000D03*
X141600000Y-129690000D03*
X154300000Y-144930000D03*
D14*
X141600000Y-127150000D03*
%TD*%
D22*
%TO.C,A1*%
X171300000Y-127150000D03*
X158600000Y-144930000D03*
X171300000Y-129690000D03*
X158600000Y-142390000D03*
X171300000Y-132230000D03*
X158600000Y-139850000D03*
X171300000Y-134770000D03*
X158600000Y-137310000D03*
X171300000Y-137310000D03*
X158600000Y-134770000D03*
X171300000Y-139850000D03*
X158600000Y-132230000D03*
X171300000Y-142390000D03*
X158600000Y-129690000D03*
X171300000Y-144930000D03*
D14*
X158600000Y-127150000D03*
%TD*%
M02*
