%TF.GenerationSoftware,KiCad,Pcbnew,(5.1.6)-1*%
%TF.CreationDate,2020-11-25T15:39:46-05:00*%
%TF.ProjectId,CNC_Board,434e435f-426f-4617-9264-2e6b69636164,rev?*%
%TF.SameCoordinates,Original*%
%TF.FileFunction,Legend,Bot*%
%TF.FilePolarity,Positive*%
%FSLAX46Y46*%
G04 Gerber Fmt 4.6, Leading zero omitted, Abs format (unit mm)*
G04 Created by KiCad (PCBNEW (5.1.6)-1) date 2020-11-25 15:39:46*
%MOMM*%
%LPD*%
G01*
G04 APERTURE LIST*
%ADD10C,0.150000*%
%ADD11C,0.120000*%
G04 APERTURE END LIST*
D10*
X110704761Y-131857142D02*
X110752380Y-131904761D01*
X110895238Y-131952380D01*
X110990476Y-131952380D01*
X111133333Y-131904761D01*
X111228571Y-131809523D01*
X111276190Y-131714285D01*
X111323809Y-131523809D01*
X111323809Y-131380952D01*
X111276190Y-131190476D01*
X111228571Y-131095238D01*
X111133333Y-131000000D01*
X110990476Y-130952380D01*
X110895238Y-130952380D01*
X110752380Y-131000000D01*
X110704761Y-131047619D01*
X110133333Y-131952380D02*
X110228571Y-131904761D01*
X110276190Y-131857142D01*
X110323809Y-131761904D01*
X110323809Y-131476190D01*
X110276190Y-131380952D01*
X110228571Y-131333333D01*
X110133333Y-131285714D01*
X109990476Y-131285714D01*
X109895238Y-131333333D01*
X109847619Y-131380952D01*
X109800000Y-131476190D01*
X109800000Y-131761904D01*
X109847619Y-131857142D01*
X109895238Y-131904761D01*
X109990476Y-131952380D01*
X110133333Y-131952380D01*
X109371428Y-131285714D02*
X109371428Y-131952380D01*
X109371428Y-131380952D02*
X109323809Y-131333333D01*
X109228571Y-131285714D01*
X109085714Y-131285714D01*
X108990476Y-131333333D01*
X108942857Y-131428571D01*
X108942857Y-131952380D01*
X108609523Y-131285714D02*
X108228571Y-131285714D01*
X108466666Y-130952380D02*
X108466666Y-131809523D01*
X108419047Y-131904761D01*
X108323809Y-131952380D01*
X108228571Y-131952380D01*
X107895238Y-131952380D02*
X107895238Y-131285714D01*
X107895238Y-131476190D02*
X107847619Y-131380952D01*
X107800000Y-131333333D01*
X107704761Y-131285714D01*
X107609523Y-131285714D01*
X107133333Y-131952380D02*
X107228571Y-131904761D01*
X107276190Y-131857142D01*
X107323809Y-131761904D01*
X107323809Y-131476190D01*
X107276190Y-131380952D01*
X107228571Y-131333333D01*
X107133333Y-131285714D01*
X106990476Y-131285714D01*
X106895238Y-131333333D01*
X106847619Y-131380952D01*
X106800000Y-131476190D01*
X106800000Y-131761904D01*
X106847619Y-131857142D01*
X106895238Y-131904761D01*
X106990476Y-131952380D01*
X107133333Y-131952380D01*
X106228571Y-131952380D02*
X106323809Y-131904761D01*
X106371428Y-131809523D01*
X106371428Y-130952380D01*
X112280952Y-94752380D02*
X112090476Y-94752380D01*
X111995238Y-94800000D01*
X111900000Y-94895238D01*
X111852380Y-95085714D01*
X111852380Y-95419047D01*
X111900000Y-95609523D01*
X111995238Y-95704761D01*
X112090476Y-95752380D01*
X112280952Y-95752380D01*
X112376190Y-95704761D01*
X112471428Y-95609523D01*
X112519047Y-95419047D01*
X112519047Y-95085714D01*
X112471428Y-94895238D01*
X112376190Y-94800000D01*
X112280952Y-94752380D01*
X110947619Y-95752380D02*
X111423809Y-95752380D01*
X111423809Y-94752380D01*
X110614285Y-95228571D02*
X110280952Y-95228571D01*
X110138095Y-95752380D02*
X110614285Y-95752380D01*
X110614285Y-94752380D01*
X110138095Y-94752380D01*
X109709523Y-95752380D02*
X109709523Y-94752380D01*
X109471428Y-94752380D01*
X109328571Y-94800000D01*
X109233333Y-94895238D01*
X109185714Y-94990476D01*
X109138095Y-95180952D01*
X109138095Y-95323809D01*
X109185714Y-95514285D01*
X109233333Y-95609523D01*
X109328571Y-95704761D01*
X109471428Y-95752380D01*
X109709523Y-95752380D01*
X107757142Y-94752380D02*
X107661904Y-94752380D01*
X107566666Y-94800000D01*
X107519047Y-94847619D01*
X107471428Y-94942857D01*
X107423809Y-95133333D01*
X107423809Y-95371428D01*
X107471428Y-95561904D01*
X107519047Y-95657142D01*
X107566666Y-95704761D01*
X107661904Y-95752380D01*
X107757142Y-95752380D01*
X107852380Y-95704761D01*
X107900000Y-95657142D01*
X107947619Y-95561904D01*
X107995238Y-95371428D01*
X107995238Y-95133333D01*
X107947619Y-94942857D01*
X107900000Y-94847619D01*
X107852380Y-94800000D01*
X107757142Y-94752380D01*
X106995238Y-95657142D02*
X106947619Y-95704761D01*
X106995238Y-95752380D01*
X107042857Y-95704761D01*
X106995238Y-95657142D01*
X106995238Y-95752380D01*
X106471428Y-95752380D02*
X106280952Y-95752380D01*
X106185714Y-95704761D01*
X106138095Y-95657142D01*
X106042857Y-95514285D01*
X105995238Y-95323809D01*
X105995238Y-94942857D01*
X106042857Y-94847619D01*
X106090476Y-94800000D01*
X106185714Y-94752380D01*
X106376190Y-94752380D01*
X106471428Y-94800000D01*
X106519047Y-94847619D01*
X106566666Y-94942857D01*
X106566666Y-95180952D01*
X106519047Y-95276190D01*
X106471428Y-95323809D01*
X106376190Y-95371428D01*
X106185714Y-95371428D01*
X106090476Y-95323809D01*
X106042857Y-95276190D01*
X105995238Y-95180952D01*
X105138095Y-94752380D02*
X105328571Y-94752380D01*
X105423809Y-94800000D01*
X105471428Y-94847619D01*
X105566666Y-94990476D01*
X105614285Y-95180952D01*
X105614285Y-95561904D01*
X105566666Y-95657142D01*
X105519047Y-95704761D01*
X105423809Y-95752380D01*
X105233333Y-95752380D01*
X105138095Y-95704761D01*
X105090476Y-95657142D01*
X105042857Y-95561904D01*
X105042857Y-95323809D01*
X105090476Y-95228571D01*
X105138095Y-95180952D01*
X105233333Y-95133333D01*
X105423809Y-95133333D01*
X105519047Y-95180952D01*
X105566666Y-95228571D01*
X105614285Y-95323809D01*
X104661904Y-94752380D02*
X104661904Y-94942857D01*
X104280952Y-94752380D02*
X104280952Y-94942857D01*
D11*
%TO.C,U3*%
X122000000Y-106150000D02*
X122000000Y-96650000D01*
X94700000Y-106150000D02*
X122000000Y-106150000D01*
X94700000Y-87150000D02*
X94700000Y-106150000D01*
X122000000Y-87150000D02*
X94700000Y-87150000D01*
X122000000Y-96650000D02*
X122000000Y-87150000D01*
X122000000Y-96600000D02*
X122000000Y-96650000D01*
%TO.C,SW1*%
X108500000Y-124000000D02*
G75*
G03*
X108500000Y-124000000I-3000000J0D01*
G01*
X103500000Y-118100000D02*
X99400000Y-118100000D01*
X99400000Y-129900000D02*
X103500000Y-129900000D01*
X107500000Y-129900000D02*
X111600000Y-129900000D01*
X107500000Y-118100000D02*
X111600000Y-118100000D01*
X111600000Y-118100000D02*
X111600000Y-129900000D01*
X113000000Y-120200000D02*
X113300000Y-119900000D01*
X113300000Y-119900000D02*
X112700000Y-119900000D01*
X112700000Y-119900000D02*
X113000000Y-120200000D01*
X99400000Y-118100000D02*
X99400000Y-120500000D01*
X99400000Y-122700000D02*
X99400000Y-125300000D01*
X99400000Y-127500000D02*
X99400000Y-129900000D01*
X105500000Y-123500000D02*
X105500000Y-124500000D01*
X106000000Y-124000000D02*
X105000000Y-124000000D01*
%TO.C,D2*%
X99920000Y-114590000D02*
X99764000Y-114590000D01*
X102236000Y-114590000D02*
X102080000Y-114590000D01*
X99920163Y-111988870D02*
G75*
G03*
X99920000Y-114070961I1079837J-1041130D01*
G01*
X102079837Y-111988870D02*
G75*
G02*
X102080000Y-114070961I-1079837J-1041130D01*
G01*
X99921392Y-111357665D02*
G75*
G03*
X99764484Y-114590000I1078608J-1672335D01*
G01*
X102078608Y-111357665D02*
G75*
G02*
X102235516Y-114590000I-1078608J-1672335D01*
G01*
%TO.C,D1*%
X108920000Y-114590000D02*
X108764000Y-114590000D01*
X111236000Y-114590000D02*
X111080000Y-114590000D01*
X108920163Y-111988870D02*
G75*
G03*
X108920000Y-114070961I1079837J-1041130D01*
G01*
X111079837Y-111988870D02*
G75*
G02*
X111080000Y-114070961I-1079837J-1041130D01*
G01*
X108921392Y-111357665D02*
G75*
G03*
X108764484Y-114590000I1078608J-1672335D01*
G01*
X111078608Y-111357665D02*
G75*
G02*
X111235516Y-114590000I-1078608J-1672335D01*
G01*
%TO.C,U3*%
D10*
X109261904Y-96452380D02*
X109261904Y-97261904D01*
X109214285Y-97357142D01*
X109166666Y-97404761D01*
X109071428Y-97452380D01*
X108880952Y-97452380D01*
X108785714Y-97404761D01*
X108738095Y-97357142D01*
X108690476Y-97261904D01*
X108690476Y-96452380D01*
X108309523Y-96452380D02*
X107690476Y-96452380D01*
X108023809Y-96833333D01*
X107880952Y-96833333D01*
X107785714Y-96880952D01*
X107738095Y-96928571D01*
X107690476Y-97023809D01*
X107690476Y-97261904D01*
X107738095Y-97357142D01*
X107785714Y-97404761D01*
X107880952Y-97452380D01*
X108166666Y-97452380D01*
X108261904Y-97404761D01*
X108309523Y-97357142D01*
%TO.C,SW1*%
X103333333Y-131904761D02*
X103190476Y-131952380D01*
X102952380Y-131952380D01*
X102857142Y-131904761D01*
X102809523Y-131857142D01*
X102761904Y-131761904D01*
X102761904Y-131666666D01*
X102809523Y-131571428D01*
X102857142Y-131523809D01*
X102952380Y-131476190D01*
X103142857Y-131428571D01*
X103238095Y-131380952D01*
X103285714Y-131333333D01*
X103333333Y-131238095D01*
X103333333Y-131142857D01*
X103285714Y-131047619D01*
X103238095Y-131000000D01*
X103142857Y-130952380D01*
X102904761Y-130952380D01*
X102761904Y-131000000D01*
X102428571Y-130952380D02*
X102190476Y-131952380D01*
X102000000Y-131238095D01*
X101809523Y-131952380D01*
X101571428Y-130952380D01*
X100666666Y-131952380D02*
X101238095Y-131952380D01*
X100952380Y-131952380D02*
X100952380Y-130952380D01*
X101047619Y-131095238D01*
X101142857Y-131190476D01*
X101238095Y-131238095D01*
%TO.C,D2*%
X104938095Y-113352380D02*
X104938095Y-112352380D01*
X104700000Y-112352380D01*
X104557142Y-112400000D01*
X104461904Y-112495238D01*
X104414285Y-112590476D01*
X104366666Y-112780952D01*
X104366666Y-112923809D01*
X104414285Y-113114285D01*
X104461904Y-113209523D01*
X104557142Y-113304761D01*
X104700000Y-113352380D01*
X104938095Y-113352380D01*
X103985714Y-112447619D02*
X103938095Y-112400000D01*
X103842857Y-112352380D01*
X103604761Y-112352380D01*
X103509523Y-112400000D01*
X103461904Y-112447619D01*
X103414285Y-112542857D01*
X103414285Y-112638095D01*
X103461904Y-112780952D01*
X104033333Y-113352380D01*
X103414285Y-113352380D01*
%TO.C,D1*%
X113938095Y-113352380D02*
X113938095Y-112352380D01*
X113700000Y-112352380D01*
X113557142Y-112400000D01*
X113461904Y-112495238D01*
X113414285Y-112590476D01*
X113366666Y-112780952D01*
X113366666Y-112923809D01*
X113414285Y-113114285D01*
X113461904Y-113209523D01*
X113557142Y-113304761D01*
X113700000Y-113352380D01*
X113938095Y-113352380D01*
X112414285Y-113352380D02*
X112985714Y-113352380D01*
X112700000Y-113352380D02*
X112700000Y-112352380D01*
X112795238Y-112495238D01*
X112890476Y-112590476D01*
X112985714Y-112638095D01*
%TD*%
M02*
